<svg width="100" height="43" viewBox="0 0 100 43" fill="none" xmlns="http://www.w3.org/2000/svg">
<g id="Zoho-logo 1" clip-path="url(#clip0_296_234)">
<g id="Group">
<g id="Group_2">
<g id="Group_3">
<path id="Vector" d="M44.7363 33.7312C43.9844 33.7312 43.2227 33.5783 42.4902 33.2629L26.8652 26.4498C24.0723 25.2363 22.8125 22.016 24.0527 19.2832L31.0156 3.99426C32.2559 1.26137 35.5469 0.0287076 38.3398 1.24226L53.9648 8.05537C56.7578 9.26893 58.0176 12.4892 56.7773 15.222L49.8145 30.5109C48.8867 32.5367 46.8555 33.7312 44.7363 33.7312ZM43.7891 30.3963C44.9707 30.9123 46.3574 30.3867 46.8848 29.24L53.8477 13.9512C54.375 12.7949 53.8379 11.438 52.666 10.922L37.0313 4.10893C35.8496 3.59293 34.4629 4.11848 33.9355 5.26515L26.9727 20.554C26.4453 21.7103 26.9824 23.0672 28.1543 23.5832L43.7891 30.3963Z" fill="#089949"/>
</g>
<g id="Group_4">
<path id="Vector_2" d="M93.75 33.7407H76.6406C73.584 33.7407 71.0938 31.3041 71.0938 28.3132V11.5718C71.0938 8.58095 73.584 6.14429 76.6406 6.14429H93.75C96.8066 6.14429 99.2969 8.58095 99.2969 11.5718V28.3132C99.2969 31.3041 96.8066 33.7407 93.75 33.7407ZM76.6406 9.27851C75.3516 9.27851 74.2969 10.3105 74.2969 11.5718V28.3132C74.2969 29.5745 75.3516 30.6065 76.6406 30.6065H93.75C95.0391 30.6065 96.0938 29.5745 96.0938 28.3132V11.5718C96.0938 10.3105 95.0391 9.27851 93.75 9.27851H76.6406Z" fill="#F9B21D"/>
</g>
<path id="Vector_3" d="M29.6777 14.6392L27.373 19.6845C27.3437 19.7418 27.3144 19.7896 27.2852 19.8374L28.1836 25.2649C28.3887 26.5167 27.5195 27.692 26.25 27.8927L9.35546 30.5683C8.74023 30.6638 8.11523 30.5205 7.60741 30.1669C7.0996 29.8134 6.76757 29.2783 6.66991 28.6763L3.93554 12.1452C3.83788 11.5432 3.98437 10.9316 4.34569 10.4347C4.70702 9.93783 5.2539 9.61294 5.86913 9.51738L22.7637 6.84183C22.8906 6.82272 23.0176 6.81316 23.1348 6.81316C24.2578 6.81316 25.2637 7.61583 25.4492 8.74338L26.3574 14.2092L28.7402 8.98227L28.6133 8.24649C28.125 5.29383 25.2734 3.27761 22.2559 3.75538L5.36132 6.43094C3.90624 6.65072 2.61718 7.42472 1.7578 8.60005C0.888662 9.77538 0.546866 11.2087 0.781241 12.642L3.51562 29.1732C3.74999 30.6065 4.54101 31.8583 5.74218 32.7087C6.68944 33.3872 7.81249 33.7312 8.9746 33.7312C9.26757 33.7312 9.5703 33.712 9.87304 33.6643L26.7676 30.9887C29.7852 30.5109 31.8457 27.7207 31.3574 24.768L29.6777 14.6392Z" fill="#E42527"/>
<g id="Group_5">
<path id="Vector_4" d="M49.9414 22.5321L52.4219 17.095L51.7187 12.0401C51.6308 11.4381 51.7969 10.8361 52.1777 10.3487C52.5586 9.86141 53.1055 9.54607 53.7305 9.46963L70.6836 7.21452C70.791 7.20496 70.8984 7.19541 71.0058 7.19541C71.5137 7.19541 72.0019 7.35785 72.4219 7.66363C72.5 7.72096 72.5683 7.78785 72.6367 7.84519C73.3887 7.07119 74.375 6.51696 75.4785 6.27807C75.166 5.85763 74.7949 5.48496 74.3555 5.16007C73.1738 4.28096 71.7187 3.9083 70.2539 4.09941L53.2812 6.35452C51.8164 6.54563 50.5078 7.29096 49.6191 8.44719C48.7207 9.60341 48.3398 11.0272 48.5351 12.4605L49.9414 22.5321Z" fill="#226DB4"/>
<path id="Vector_5" d="M78.7891 25.3319L76.5625 9.27856C75.3125 9.31679 74.3066 10.3297 74.3066 11.5623V16.2732L75.625 25.7523C75.7129 26.3543 75.5469 26.9563 75.166 27.4437C74.7852 27.931 74.2383 28.2463 73.6133 28.3228L56.6602 30.5779C56.0449 30.6639 55.4297 30.5014 54.9316 30.1288C54.4336 29.7561 54.1113 29.221 54.0332 28.6094L53.2519 22.9812L50.7715 28.4183L50.8594 29.0299C51.0547 30.4632 51.8164 31.7437 52.998 32.6132C53.9746 33.3394 55.1367 33.7217 56.3477 33.7217C56.6016 33.7217 56.8555 33.7026 57.1094 33.6739L74.043 31.4379C75.5078 31.2468 76.8164 30.5015 77.7051 29.3452C78.6035 28.189 78.9844 26.7652 78.7891 25.3319Z" fill="#226DB4"/>
</g>
</g>
<g id="Group_6">
<path id="Vector_6" d="M30.957 41.6813L33.3789 38.1839H31.3867C31.2793 38.1839 31.1914 38.0979 31.1914 37.9928V37.5246C31.1914 37.4195 31.2793 37.3335 31.3867 37.3335H34.6582C34.7656 37.3335 34.8535 37.4195 34.8535 37.5246V37.7062C34.8535 37.7444 34.8437 37.7826 34.8242 37.8113L32.4511 41.3086H34.5801C34.6875 41.3086 34.7754 41.3946 34.7754 41.4997V41.9679C34.7754 42.0731 34.6875 42.1591 34.5801 42.1591H31.123C31.0156 42.1591 30.9277 42.0731 30.9277 41.9679V41.7959C30.9179 41.7482 30.9375 41.7099 30.957 41.6813Z" fill="black"/>
<path id="Vector_7" d="M41.1523 39.7129C41.1523 38.2796 42.2265 37.2476 43.6914 37.2476C45.205 37.2476 46.2304 38.2604 46.2304 39.7224C46.2304 41.2036 45.1855 42.226 43.6718 42.226C42.1484 42.226 41.1523 41.2036 41.1523 39.7129ZM45.0683 39.732C45.0683 38.8624 44.6386 38.1171 43.6718 38.1171C42.6953 38.1171 42.3242 38.8911 42.3242 39.7702C42.3242 40.6016 42.7832 41.366 43.7207 41.366C44.6875 41.3564 45.0683 40.5442 45.0683 39.732Z" fill="black"/>
<path id="Vector_8" d="M53.1738 37.324H53.8965C54.0039 37.324 54.0918 37.41 54.0918 37.5151V39.2924H56.1426V37.5151C56.1426 37.41 56.2305 37.324 56.3379 37.324H57.0605C57.1679 37.324 57.2558 37.41 57.2558 37.5151V41.9584C57.2558 42.0635 57.1679 42.1495 57.0605 42.1495H56.3476C56.2402 42.1495 56.1523 42.0635 56.1523 41.9584V40.162H54.1015V41.9584C54.1015 42.0635 54.0137 42.1495 53.9062 42.1495H53.1836C53.0762 42.1495 52.9883 42.0635 52.9883 41.9584V37.5151C52.9785 37.41 53.0664 37.324 53.1738 37.324Z" fill="black"/>
<path id="Vector_9" d="M64.0039 39.7129C64.0039 38.2796 65.0781 37.2476 66.5429 37.2476C68.0566 37.2476 69.082 38.2604 69.082 39.7224C69.082 41.2036 68.0371 42.226 66.5234 42.226C65 42.226 64.0039 41.2036 64.0039 39.7129ZM67.9101 39.732C67.9101 38.8624 67.4804 38.1171 66.5136 38.1171C65.5371 38.1171 65.166 38.8911 65.166 39.7702C65.166 40.6016 65.625 41.366 66.5625 41.366C67.5293 41.3564 67.9101 40.5442 67.9101 39.732Z" fill="black"/>
</g>
</g>
</g>
<defs>
<clipPath id="clip0_296_234">
<rect width="100" height="43" fill="white"/>
</clipPath>
</defs>
</svg>
